<svg width="53" height="54" viewBox="0 0 53 54" fill="none" xmlns="http://www.w3.org/2000/svg">
<g id="icon-user">
<g id="Shape">
<path fill-rule="evenodd" clip-rule="evenodd" d="M26.5 5.3125C20.4594 5.3125 15.5625 10.2094 15.5625 16.25C15.5625 22.2906 20.4594 27.1875 26.5 27.1875C32.5406 27.1875 37.4375 22.2906 37.4375 16.25C37.4375 10.2094 32.5406 5.3125 26.5 5.3125ZM19.9375 16.25C19.9375 12.6256 22.8756 9.6875 26.5 9.6875C30.1244 9.6875 33.0625 12.6256 33.0625 16.25C33.0625 19.8744 30.1244 22.8125 26.5 22.8125C22.8756 22.8125 19.9375 19.8744 19.9375 16.25Z" fill="black"/>
<path d="M17.75 31.5625C14.8492 31.5625 12.0672 32.7148 10.016 34.766C7.96484 36.8172 6.8125 39.5992 6.8125 42.5V46.875C6.8125 48.0831 7.79188 49.0625 9 49.0625C10.2081 49.0625 11.1875 48.0831 11.1875 46.875V42.5C11.1875 40.7595 11.8789 39.0903 13.1096 37.8596C14.3403 36.6289 16.0095 35.9375 17.75 35.9375H35.25C36.9905 35.9375 38.6597 36.6289 39.8904 37.8596C41.1211 39.0903 41.8125 40.7595 41.8125 42.5V46.875C41.8125 48.0831 42.7919 49.0625 44 49.0625C45.2081 49.0625 46.1875 48.0831 46.1875 46.875V42.5C46.1875 39.5992 45.0352 36.8172 42.984 34.766C40.9328 32.7148 38.1508 31.5625 35.25 31.5625H17.75Z" fill="black"/>
</g>
</g>
</svg>
