<svg width="17" height="17" viewBox="0 0 17 17" fill="none" xmlns="http://www.w3.org/2000/svg">
<g id="Password Icon">
<path id="Shape" fill-rule="evenodd" clip-rule="evenodd" d="M4.24996 7.08325V4.95825C4.24996 3.83108 4.69773 2.75008 5.49476 1.95305C6.29179 1.15602 7.37279 0.708252 8.49996 0.708252C9.62713 0.708252 10.7081 1.15602 11.5052 1.95305C12.3022 2.75008 12.75 3.83108 12.75 4.95825V7.08325H13.4583C14.6319 7.08325 15.5833 8.03465 15.5833 9.20825V14.1666C15.5833 15.3402 14.6319 16.2916 13.4583 16.2916H3.54163C2.36802 16.2916 1.41663 15.3402 1.41663 14.1666V9.20825C1.41663 8.03465 2.36802 7.08325 3.54163 7.08325H4.24996ZM6.49649 2.95478C7.02784 2.42343 7.74851 2.12492 8.49996 2.12492C9.25141 2.12492 9.97208 2.42343 10.5034 2.95478C11.0348 3.48614 11.3333 4.20681 11.3333 4.95825V7.08325H5.66663V4.95825C5.66663 4.20681 5.96514 3.48614 6.49649 2.95478ZM3.54163 8.49992C3.15042 8.49992 2.83329 8.81705 2.83329 9.20825V14.1666C2.83329 14.5578 3.15042 14.8749 3.54163 14.8749H13.4583C13.8495 14.8749 14.1666 14.5578 14.1666 14.1666V9.20825C14.1666 8.81705 13.8495 8.49992 13.4583 8.49992H3.54163Z" fill="#2D3648"/>
</g>
</svg>
